0
SECTION
2
HEADER
9
$ACADVER
1
AC1015
0
ENDSEC
0
SECTION
2
TABLES
0
TABLE
2
LAYER
70
6
0
LAYER
2
0
70
0
62
7
6
CONTINUOUS
0
LAYER
2
COTES
70
0
62
1
6
CONTINUOUS
0
LAYER
2
FENETRES
70
0
62
4
6
CONTINUOUS
0
LAYER
2
MURS
70
0
62
7
6
CONTINUOUS
0
LAYER
2
PORTES
70
0
62
3
6
CONTINUOUS
0
LAYER
2
TEXTE
70
0
62
2
6
CONTINUOUS
0
ENDTAB
0
ENDSEC
0
SECTION
2
BLOCKS
0
ENDSEC
0
SECTION
2
ENTITIES
0
LINE
5
100
8
MURS
10
-0.15
20
-0.15
30
0
11
2
21
-0.15
31
0
0
LINE
5
101
8
MURS
10
2
20
-0.15
30
0
11
2
21
0.15
31
0
0
LINE
5
102
8
MURS
10
2
20
0.15
30
0
11
0.15
21
0.15
31
0
0
LINE
5
103
8
MURS
10
0.15
20
0.15
30
0
11
0.15
21
5.94
31
0
0
LINE
5
104
8
MURS
10
0.15
20
5.94
30
0
11
3.25
21
5.94
31
0
0
LINE
5
105
8
MURS
10
3.25
20
5.94
30
0
11
3.25
21
6.06
31
0
0
LINE
5
106
8
MURS
10
3.25
20
6.06
30
0
11
0.15
21
6.06
31
0
0
LINE
5
107
8
MURS
10
0.15
20
6.06
30
0
11
0.15
21
10.85
31
0
0
LINE
5
108
8
MURS
10
0.15
20
10.85
30
0
11
2.5
21
10.85
31
0
0
LINE
5
109
8
MURS
10
2.5
20
10.85
30
0
11
2.5
21
11.15
31
0
0
LINE
5
10A
8
MURS
10
2.5
20
11.15
30
0
11
-0.15
21
11.15
31
0
0
LINE
5
10B
8
MURS
10
-0.15
20
11.15
30
0
11
-0.15
21
-0.15
31
0
0
LINE
5
10C
8
MURS
10
3.5
20
10.85
30
0
11
5.85
21
10.85
31
0
0
LINE
5
10D
8
MURS
10
5.85
20
10.85
30
0
11
5.85
21
9.3
31
0
0
LINE
5
10E
8
MURS
10
5.85
20
9.3
30
0
11
6.15
21
9.3
31
0
0
LINE
5
10F
8
MURS
10
6.15
20
9.3
30
0
11
6.15
21
11.15
31
0
0
LINE
5
110
8
MURS
10
6.15
20
11.15
30
0
11
3.5
21
11.15
31
0
0
LINE
5
111
8
MURS
10
3.5
20
11.15
30
0
11
3.5
21
10.85
31
0
0
LINE
5
112
8
MURS
10
4
20
-0.15
30
0
11
8.8
21
-0.15
31
0
0
LINE
5
113
8
MURS
10
8.8
20
-0.15
30
0
11
8.8
21
0.15
31
0
0
LINE
5
114
8
MURS
10
8.8
20
0.15
30
0
11
6.06
21
0.15
31
0
0
LINE
5
115
8
MURS
10
6.06
20
0.15
30
0
11
6.06
21
2.55
31
0
0
LINE
5
116
8
MURS
10
6.06
20
2.55
30
0
11
5.94
21
2.55
31
0
0
LINE
5
117
8
MURS
10
5.94
20
2.55
30
0
11
5.94
21
0.15
31
0
0
LINE
5
118
8
MURS
10
5.94
20
0.15
30
0
11
4
21
0.15
31
0
0
LINE
5
119
8
MURS
10
4
20
0.15
30
0
11
4
21
-0.15
31
0
0
LINE
5
11A
8
MURS
10
4.75
20
5.94
30
0
11
5.85
21
5.94
31
0
0
LINE
5
11B
8
MURS
10
5.85
20
5.94
30
0
11
5.85
21
5.85
31
0
0
LINE
5
11C
8
MURS
10
5.85
20
5.85
30
0
11
5.94
21
5.85
31
0
0
LINE
5
11D
8
MURS
10
5.94
20
5.85
30
0
11
5.94
21
3.45
31
0
0
LINE
5
11E
8
MURS
10
5.94
20
3.45
30
0
11
6.06
21
3.45
31
0
0
LINE
5
11F
8
MURS
10
6.06
20
3.45
30
0
11
6.06
21
5.85
31
0
0
LINE
5
120
8
MURS
10
6.06
20
5.85
30
0
11
13.85
21
5.85
31
0
0
LINE
5
121
8
MURS
10
13.85
20
5.85
30
0
11
13.85
21
3.9
31
0
0
LINE
5
122
8
MURS
10
13.85
20
3.9
30
0
11
14.15
21
3.9
31
0
0
LINE
5
123
8
MURS
10
14.15
20
3.9
30
0
11
14.15
21
6.15
31
0
0
LINE
5
124
8
MURS
10
14.15
20
6.15
30
0
11
6.15
21
6.15
31
0
0
LINE
5
125
8
MURS
10
6.15
20
6.15
30
0
11
6.15
21
7.7
31
0
0
LINE
5
126
8
MURS
10
6.15
20
7.7
30
0
11
5.85
21
7.7
31
0
0
LINE
5
127
8
MURS
10
5.85
20
7.7
30
0
11
5.85
21
6.06
31
0
0
LINE
5
128
8
MURS
10
5.85
20
6.06
30
0
11
4.75
21
6.06
31
0
0
LINE
5
129
8
MURS
10
4.75
20
6.06
30
0
11
4.75
21
5.94
31
0
0
LINE
5
12A
8
MURS
10
11.2
20
-0.15
30
0
11
14.15
21
-0.15
31
0
0
LINE
5
12B
8
MURS
10
14.15
20
-0.15
30
0
11
14.15
21
2.1
31
0
0
LINE
5
12C
8
MURS
10
14.15
20
2.1
30
0
11
13.85
21
2.1
31
0
0
LINE
5
12D
8
MURS
10
13.85
20
2.1
30
0
11
13.85
21
0.15
31
0
0
LINE
5
12E
8
MURS
10
13.85
20
0.15
30
0
11
11.2
21
0.15
31
0
0
LINE
5
12F
8
MURS
10
11.2
20
0.15
30
0
11
11.2
21
-0.15
31
0
0
LINE
5
130
8
PORTES
10
2.5
20
11.15
30
0
11
2.5
21
12.15
31
0
0
ARC
5
131
8
PORTES
10
2.5
20
11.15
30
0
40
1
50
0
51
90
0
LINE
5
132
8
PORTES
10
6.06
20
2.55
30
0
11
6.96
21
2.55
31
0
0
ARC
5
133
8
PORTES
10
6.06
20
2.55
30
0
40
0.9
50
0
51
90
0
LWPOLYLINE
5
134
8
FENETRES
90
4
70
1
10
2
20
-0.075
10
4
20
-0.075
10
4
20
0.075
10
2
20
0.075
0
LWPOLYLINE
5
135
8
FENETRES
90
4
70
1
10
8.8
20
-0.075
10
11.2
20
-0.075
10
11.2
20
0.075
10
8.8
20
0.075
0
LWPOLYLINE
5
136
8
FENETRES
90
4
70
1
10
14.075
20
2.1
10
14.075
20
3.9
10
13.925
20
3.9
10
13.925
20
2.1
0
LWPOLYLINE
5
137
8
FENETRES
90
4
70
1
10
6.075
20
7.7
10
6.075
20
9.3
10
5.925
20
9.3
10
5.925
20
7.7
0
TEXT
5
138
8
TEXTE
10
3.045
20
3.045
30
0
40
0.25
1
Meeting Room
72
1
11
3.045
21
3.045
31
0
0
TEXT
5
139
8
TEXTE
10
9.955
20
3
30
0
40
0.25
1
Open Office
72
1
11
9.955
21
3
31
0
0
TEXT
5
13A
8
TEXTE
10
3
20
8.455
30
0
40
0.25
1
Reception
72
1
11
3
21
8.455
31
0
0
DIMENSION
5
13B
8
COTES
2
*D
10
7
20
-1.5
11
7
21
-1.5
70
32
1
14.30
13
-0.15
23
0
14
14.15
24
0
50
0
0
DIMENSION
5
13C
8
COTES
2
*D
10
-1.5
20
5.5
11
-1.5
21
5.5
70
32
1
11.30
13
0
23
-0.15
14
0
24
11.15
50
90
0
DIMENSION
5
13D
8
COTES
2
*D
10
15.5
20
3
11
15.5
21
3
70
32
1
6.30
13
14
23
-0.15
14
14
24
6.15
50
90
0
ENDSEC
0
EOF
