0
SECTION
2
HEADER
9
$ACADVER
1
AC1015
9
$INSUNITS
70
4
0
ENDSEC
0
SECTION
2
TABLES
0
TABLE
2
LAYER
70
10
0
LAYER
2
0
70
0
62
7
6
CONTINUOUS
0
LAYER
2
A-ANNO-DIMS
70
0
62
1
6
CONTINUOUS
0
LAYER
2
A-AREA
70
0
62
6
6
CONTINUOUS
0
LAYER
2
A-AREA-IDEN
70
0
62
2
6
CONTINUOUS
0
LAYER
2
A-DOOR
70
0
62
3
6
CONTINUOUS
0
LAYER
2
A-FURN
70
0
62
8
6
CONTINUOUS
0
LAYER
2
A-GLAZ
70
0
62
4
6
CONTINUOUS
0
LAYER
2
A-WALL
70
0
62
7
6
CONTINUOUS
0
LAYER
2
A-WALL-DEMO
70
1
62
1
6
CONTINUOUS
0
LAYER
2
S-GRID
70
0
62
8
6
CONTINUOUS
0
ENDTAB
0
ENDSEC
0
SECTION
2
BLOCKS
0
BLOCK
8
0
2
DOOR
70
0
10
0
20
0
30
0
3
DOOR
0
LINE
5
130
8
0
10
0
20
0
30
0
11
0
21
1
31
0
0
ARC
5
131
8
0
10
0
20
0
30
0
40
1
50
0
51
90
0
ENDBLK
8
0
0
ENDSEC
0
SECTION
2
ENTITIES
0
LINE
5
100
8
A-WALL
10
-125
20
-125
30
0
11
1600
21
-125
31
0
0
LINE
5
101
8
A-WALL
10
1600
20
-125
30
0
11
1600
21
125
31
0
0
LINE
5
102
8
A-WALL
10
1600
20
125
30
0
11
125
21
125
31
0
0
LINE
5
103
8
A-WALL
10
125
20
125
30
0
11
125
21
2800
31
0
0
LINE
5
104
8
A-WALL
10
125
20
2800
30
0
11
-125
21
2800
31
0
0
LINE
5
105
8
A-WALL
10
-125
20
2800
30
0
11
-125
21
-125
31
0
0
LINE
5
106
8
A-WALL
10
-125
20
5200
30
0
11
125
21
5200
31
0
0
LINE
5
107
8
A-WALL
10
125
20
5200
30
0
11
125
21
7875
31
0
0
LINE
5
108
8
A-WALL
10
125
20
7875
30
0
11
4950
21
7875
31
0
0
LINE
5
109
8
A-WALL
10
4950
20
7875
30
0
11
4950
21
6450
31
0
0
LINE
5
10A
8
A-WALL
10
4950
20
6450
30
0
11
5050
21
6450
31
0
0
LINE
5
10B
8
A-WALL
10
5050
20
6450
30
0
11
5050
21
7875
31
0
0
LINE
5
10C
8
A-WALL
10
5050
20
7875
30
0
11
8100
21
7875
31
0
0
LINE
5
10D
8
A-WALL
10
8100
20
7875
30
0
11
8100
21
8125
31
0
0
LINE
5
10E
8
A-WALL
10
8100
20
8125
30
0
11
-125
21
8125
31
0
0
LINE
5
10F
8
A-WALL
10
-125
20
8125
30
0
11
-125
21
5200
31
0
0
LINE
5
110
8
A-WALL
10
3400
20
-125
30
0
11
8000
21
-125
31
0
0
LINE
5
111
8
A-WALL
10
8000
20
-125
30
0
11
8000
21
125
31
0
0
LINE
5
112
8
A-WALL
10
8000
20
125
30
0
11
5050
21
125
31
0
0
LINE
5
113
8
A-WALL
10
5050
20
125
30
0
11
5050
21
1550
31
0
0
LINE
5
114
8
A-WALL
10
5050
20
1550
30
0
11
4950
21
1550
31
0
0
LINE
5
115
8
A-WALL
10
4950
20
1550
30
0
11
4950
21
125
31
0
0
LINE
5
116
8
A-WALL
10
4950
20
125
30
0
11
3400
21
125
31
0
0
LINE
5
117
8
A-WALL
10
3400
20
125
30
0
11
3400
21
-125
31
0
0
LINE
5
118
8
A-WALL
10
4950
20
2450
30
0
11
5050
21
2450
31
0
0
LINE
5
119
8
A-WALL
10
5050
20
2450
30
0
11
5050
21
4450
31
0
0
LINE
5
11A
8
A-WALL
10
5050
20
4450
30
0
11
9900
21
4450
31
0
0
LINE
5
11B
8
A-WALL
10
9900
20
4450
30
0
11
9900
21
4550
31
0
0
LINE
5
11C
8
A-WALL
10
9900
20
4550
30
0
11
5050
21
4550
31
0
0
LINE
5
11D
8
A-WALL
10
5050
20
4550
30
0
11
5050
21
5550
31
0
0
LINE
5
11E
8
A-WALL
10
5050
20
5550
30
0
11
4950
21
5550
31
0
0
LINE
5
11F
8
A-WALL
10
4950
20
5550
30
0
11
4950
21
2450
31
0
0
LINE
5
120
8
A-WALL
10
9000
20
-125
30
0
11
12125
21
-125
31
0
0
LINE
5
121
8
A-WALL
10
12125
20
-125
30
0
11
12125
21
1450
31
0
0
LINE
5
122
8
A-WALL
10
12125
20
1450
30
0
11
11875
21
1450
31
0
0
LINE
5
123
8
A-WALL
10
11875
20
1450
30
0
11
11875
21
125
31
0
0
LINE
5
124
8
A-WALL
10
11875
20
125
30
0
11
9000
21
125
31
0
0
LINE
5
125
8
A-WALL
10
9000
20
125
30
0
11
9000
21
-125
31
0
0
LINE
5
126
8
A-WALL
10
9900
20
7875
30
0
11
11875
21
7875
31
0
0
LINE
5
127
8
A-WALL
10
11875
20
7875
30
0
11
11875
21
4550
31
0
0
LINE
5
128
8
A-WALL
10
11875
20
4550
30
0
11
11100
21
4550
31
0
0
LINE
5
129
8
A-WALL
10
11100
20
4550
30
0
11
11100
21
4450
31
0
0
LINE
5
12A
8
A-WALL
10
11100
20
4450
30
0
11
11875
21
4450
31
0
0
LINE
5
12B
8
A-WALL
10
11875
20
4450
30
0
11
11875
21
2950
31
0
0
LINE
5
12C
8
A-WALL
10
11875
20
2950
30
0
11
12125
21
2950
31
0
0
LINE
5
12D
8
A-WALL
10
12125
20
2950
30
0
11
12125
21
8125
31
0
0
LINE
5
12E
8
A-WALL
10
12125
20
8125
30
0
11
9900
21
8125
31
0
0
LINE
5
12F
8
A-WALL
10
9900
20
8125
30
0
11
9900
21
7875
31
0
0
INSERT
5
132
8
A-DOOR
2
DOOR
10
8000
20
125
30
0
41
1000
42
1000
43
1
50
0
0
INSERT
5
133
8
A-DOOR
2
DOOR
10
5050
20
2450
30
0
41
900
42
900
43
1
50
-90
0
INSERT
5
134
8
A-DOOR
2
DOOR
10
4950
20
5550
30
0
41
900
42
900
43
1
50
90
0
LINE
5
135
8
A-GLAZ
10
1600
20
-62.5
30
0
11
3400
21
-62.5
31
0
0
LINE
5
136
8
A-GLAZ
10
1600
20
0
30
0
11
3400
21
0
31
0
0
LINE
5
137
8
A-GLAZ
10
1600
20
62.5
30
0
11
3400
21
62.5
31
0
0
LINE
5
138
8
A-GLAZ
10
12062.5
20
1450
30
0
11
12062.5
21
2950
31
0
0
LINE
5
139
8
A-GLAZ
10
12000
20
1450
30
0
11
12000
21
2950
31
0
0
LINE
5
13A
8
A-GLAZ
10
11937.5
20
1450
30
0
11
11937.5
21
2950
31
0
0
LINE
5
13B
8
A-GLAZ
10
9900
20
8062.5
30
0
11
8100
21
8062.5
31
0
0
LINE
5
13C
8
A-GLAZ
10
9900
20
8000
30
0
11
8100
21
8000
31
0
0
LINE
5
13D
8
A-GLAZ
10
9900
20
7937.5
30
0
11
8100
21
7937.5
31
0
0
LINE
5
13E
8
A-GLAZ
10
-62.5
20
5200
30
0
11
-62.5
21
2800
31
0
0
LINE
5
13F
8
A-GLAZ
10
0
20
5200
30
0
11
0
21
2800
31
0
0
LINE
5
140
8
A-GLAZ
10
62.5
20
5200
30
0
11
62.5
21
2800
31
0
0
LWPOLYLINE
5
141
8
A-AREA
90
4
70
1
10
125
20
125
10
4950
20
125
10
4950
20
7875
10
125
20
7875
0
MTEXT
5
142
8
A-AREA-IDEN
10
2537.5
20
4000
30
0
40
250
71
5
1
{\fArial|b0|i0;BOARDROOM\P12 PAX}
0
LWPOLYLINE
5
143
8
A-AREA
90
4
70
1
10
5050
20
125
10
11875
20
125
10
11875
20
4450
10
5050
20
4450
0
MTEXT
5
144
8
A-AREA-IDEN
10
8462.5
20
2287.5
30
0
40
250
71
5
1
{\fArial|b0|i0;OPEN OFFICE}
0
LWPOLYLINE
5
145
8
A-AREA
90
4
70
1
10
5050
20
4550
10
11875
20
4550
10
11875
20
7875
10
5050
20
7875
0
MTEXT
5
146
8
A-AREA-IDEN
10
8462.5
20
6212.5
30
0
40
250
71
5
1
{\fArial|b0|i0;MEETING ROOM\P6 PAX}
0
DIMENSION
5
147
8
A-ANNO-DIMS
2
*D
10
6000
20
-1500
11
6000
21
-1500
70
32
1
12250
13
-125
23
0
14
12125
24
0
50
0
0
DIMENSION
5
148
8
A-ANNO-DIMS
2
*D
10
-1500
20
4000
11
-1500
21
4000
70
32
1
8250
13
0
23
-125
14
0
24
8125
50
90
0
DIMENSION
5
149
8
A-ANNO-DIMS
2
*D
10
8500
20
-900
11
8500
21
-900
70
32
1
<>
13
5000
23
0
14
12000
24
0
50
0
0
LINE
5
14A
8
A-WALL-DEMO
10
2500
20
125
30
0
11
2500
21
7875
31
0
0
LINE
5
14B
8
A-WALL-DEMO
10
2650
20
125
30
0
11
2650
21
7875
31
0
0
LWPOLYLINE
5
14C
8
A-FURN
90
4
70
1
10
1500
20
2500
10
3500
20
2500
10
3500
20
5500
10
1500
20
5500
0
LWPOLYLINE
5
14D
8
A-FURN
90
4
70
1
10
1600
20
2600
10
3400
20
2600
10
3400
20
5400
10
1600
20
5400
0
LINE
5
14E
8
S-GRID
10
-3000
20
0
30
0
11
15000
21
0
31
0
0
ENDSEC
0
EOF
