0
SECTION
2
HEADER
9
$ACADVER
1
AC1015
9
$INSUNITS
70
1
0
ENDSEC
0
SECTION
2
TABLES
0
TABLE
2
LAYER
70
6
0
LAYER
2
0
70
0
62
7
6
CONTINUOUS
0
LAYER
2
DIMENSIONS
70
0
62
1
6
CONTINUOUS
0
LAYER
2
DOORS
70
0
62
3
6
CONTINUOUS
0
LAYER
2
ROOM-NAMES
70
0
62
2
6
CONTINUOUS
0
LAYER
2
WALLS
70
0
62
7
6
CONTINUOUS
0
LAYER
2
WINDOWS
70
0
62
4
6
CONTINUOUS
0
ENDTAB
0
ENDSEC
0
SECTION
2
BLOCKS
0
BLOCK
8
0
2
DOOR
70
0
10
0
20
0
30
0
3
DOOR
0
LINE
5
104
8
0
10
0
20
0
30
0
11
0
21
1
31
0
0
ARC
5
105
8
0
10
0
20
0
30
0
40
1
50
0
51
90
0
ENDBLK
8
0
0
BLOCK
8
0
2
WIN
70
0
10
0
20
0
30
0
3
WIN
0
LINE
5
106
8
0
10
0
20
-0.25
30
0
11
1
21
-0.25
31
0
0
LINE
5
107
8
0
10
0
20
0.25
30
0
11
1
21
0.25
31
0
0
LINE
5
108
8
0
10
0
20
-0.5
30
0
11
0
21
0.5
31
0
0
LINE
5
109
8
0
10
1
20
-0.5
30
0
11
1
21
0.5
31
0
0
ENDBLK
8
0
0
ENDSEC
0
SECTION
2
ENTITIES
0
LWPOLYLINE
5
100
8
WALLS
90
6
70
1
10
-1.464102
20
-5.464102
10
59.157677
20
29.535898
10
55.157677
20
36.464102
10
1.464102
20
5.464102
10
-56.535898
20
105.923048
10
-63.464102
20
101.923048
0
LWPOLYLINE
5
101
8
WALLS
90
18
70
1
10
-111.464102
20
185.061487
10
-104.535898
20
189.061487
10
-162.535898
20
289.520434
10
-1.67168
20
382.395434
10
113.32832
20
183.209591
10
117.225435
20
185.459591
10
85.350435
20
240.668711
10
206.160979
20
310.418711
10
238.035979
20
255.209591
10
241.933093
20
257.459591
10
210.058093
20
312.668711
10
254.874907
20
338.543711
10
252.624907
20
342.440825
10
83.100435
20
244.565825
10
2.225435
20
384.645434
10
114.592231
20
449.520434
10
110.592231
20
456.448637
10
-173.464102
20
292.448637
0
LWPOLYLINE
5
102
8
WALLS
90
12
70
1
10
111.119201
20
59.535898
10
339.749907
20
191.535898
10
335.749907
20
198.464102
10
290.933093
20
172.589102
10
259.933093
20
226.282677
10
256.035979
20
224.032677
10
287.035979
20
170.339102
10
166.225435
20
100.589102
10
135.225435
20
154.282677
10
131.32832
20
152.032677
10
162.32832
20
98.339102
10
107.119201
20
66.464102
0
LWPOLYLINE
5
103
8
WALLS
90
12
70
1
10
176.94606
20
485.520434
10
246.228092
20
525.520434
10
327.103092
20
385.440825
10
283.801822
20
360.440825
10
286.051822
20
356.543711
10
329.353092
20
381.543711
10
410.228092
20
241.464102
10
366.926822
20
216.464102
10
370.926822
20
209.535898
10
421.156295
20
238.535898
10
249.156295
20
536.448637
10
172.94606
20
492.448637
0
INSERT
5
10A
8
DOORS
2
DOOR
10
366.926822
20
216.464102
30
0
41
-36
42
36
43
1
50
30
0
INSERT
5
10B
8
DOORS
2
DOOR
10
135.225435
20
154.282677
30
0
41
-36
42
36
43
1
50
-60
0
INSERT
5
10C
8
DOORS
2
DOOR
10
238.035979
20
255.209591
30
0
41
-36
42
36
43
1
50
120
0
INSERT
5
10D
8
DOORS
2
DOOR
10
254.874907
20
338.543711
30
0
41
-36
42
36
43
1
50
-150
0
INSERT
5
10E
8
WINDOWS
2
WIN
10
174.94606
20
488.984536
30
0
41
72
42
8
43
1
50
210
0
INSERT
5
10F
8
WINDOWS
2
WIN
10
-108
20
187.061487
30
0
41
96
42
8
43
1
50
-60
0
INSERT
5
110
8
WINDOWS
2
WIN
10
57.157677
20
33
30
0
41
60
42
8
43
1
50
30
0
MTEXT
5
111
8
ROOM-NAMES
10
-0.103789
20
193.929768
30
0
40
9.84252
71
5
1
{\fArial|b0|i0;Training Room\P(20)}
0
MTEXT
5
112
8
ROOM-NAMES
10
186.193207
20
205.503906
30
0
40
9.84252
71
5
1
{\fArial|b0|i0;Huddle 1}
0
MTEXT
5
113
8
ROOM-NAMES
10
310.143093
20
277.066406
30
0
40
9.84252
71
5
1
{\fArial|b0|i0;Huddle 2}
0
MTEXT
5
114
8
ROOM-NAMES
10
164.664263
20
385.04313
30
0
40
9.84252
71
5
1
{\fArial|b0|i0;Pantry}
0
DIMENSION
5
115
8
DIMENSIONS
2
*D
10
237.846097
20
68.038476
11
237.846097
21
68.038476
70
32
1
40'-0"
13
0
23
0
14
415.692194
24
240
50
30
0
DIMENSION
5
116
8
DIMENSIONS
2
*D
10
-135.961524
20
115.492268
11
-135.961524
21
115.492268
70
32
1
28'-0"
13
0
23
0
14
-168
24
290.984536
50
120
0
DIMENSION
5
117
8
DIMENSIONS
2
*D
10
243.630707
20
106.019238
11
243.630707
21
106.019238
70
32
1
12'-0"
13
166.276878
23
96
14
290.984536
24
168
50
30
0
ENDSEC
0
EOF
